<svg width="20" height="20" viewBox="0 0 20 20" fill="none" xmlns="http://www.w3.org/2000/svg">
    <g clip-path="url(#clip0_457_1165)">
        <path d="M7.28685 11.0336C7.28685 10.783 7.08363 10.5801 6.83289 10.5801H5.24875C4.9983 10.5801 4.79504 10.783 4.79504 11.0336V12.6175C4.79504 12.8684 4.9983 13.0714 5.24875 13.0714H6.83289C7.08363 13.0714 7.28685 12.8684 7.28685 12.6175V11.0336ZM11.2458 11.0336C11.2458 10.783 11.0426 10.5801 10.7923 10.5801H9.20797C8.95752 10.5801 8.75426 10.783 8.75426 11.0336V12.6175C8.75426 12.8684 8.95752 13.0714 9.20797 13.0714H10.7923C11.0426 13.0714 11.2458 12.8684 11.2458 12.6175V11.0336ZM15.205 11.0336C15.205 10.783 15.0017 10.5801 14.7513 10.5801H13.1671C12.9164 10.5801 12.7132 10.783 12.7132 11.0336V12.6175C12.7132 12.8684 12.9164 13.0714 13.1671 13.0714H14.7513C15.0017 13.0714 15.205 12.8684 15.205 12.6175V11.0336ZM7.28685 14.993C7.28685 14.742 7.08363 14.5392 6.83289 14.5392H5.24875C4.9983 14.5392 4.79504 14.742 4.79504 14.993V16.5766C4.79504 16.8273 4.9983 17.0303 5.24875 17.0303H6.83289C7.08363 17.0303 7.28685 16.8273 7.28685 16.5766V14.993ZM11.2458 14.993C11.2458 14.742 11.0426 14.5392 10.7923 14.5392H9.20797C8.95752 14.5392 8.75426 14.742 8.75426 14.993V16.5766C8.75426 16.8273 8.95752 17.0303 9.20797 17.0303H10.7923C11.0426 17.0303 11.2458 16.8273 11.2458 16.5766V14.993ZM15.205 14.993C15.205 14.742 15.0017 14.5392 14.7515 14.5392H13.1671C12.9164 14.5392 12.7132 14.742 12.7132 14.993V16.5766C12.7132 16.8273 12.9164 17.0303 13.1671 17.0303H14.7515C15.0017 17.0303 15.205 16.8273 15.205 16.5766V14.993Z" fill="#5E5E5E"/>
        <path d="M18.0376 2.22646V4.64579C18.0376 5.7393 17.1505 6.6205 16.0571 6.6205H14.8078C13.7144 6.6205 12.8155 5.7393 12.8155 4.64579V2.21777H7.18447V4.64579C7.18447 5.7393 6.28565 6.6205 5.19239 6.6205H3.94282C2.84951 6.6205 1.96245 5.7393 1.96245 4.64579V2.22646C1.00689 2.25526 0.22168 3.04596 0.22168 4.01783V18.1962C0.22168 19.1864 1.02422 19.9996 2.01436 19.9996H17.9856C18.9743 19.9996 19.7783 19.1847 19.7783 18.1962V4.01783C19.7783 3.04596 18.9931 2.25526 18.0376 2.22646ZM17.4573 17.3133C17.4573 17.7412 17.1104 18.0884 16.6823 18.0884H3.28355C2.85549 18.0884 2.50855 17.7412 2.50855 17.3133V9.98966C2.50855 9.56159 2.85545 9.21445 3.28355 9.21445H16.6822C17.1103 9.21445 17.4573 9.56159 17.4573 9.98966L17.4573 17.3133Z" fill="#5E5E5E"/>
        <path d="M3.93849 5.32396H5.17425C5.54934 5.32396 5.85347 5.02028 5.85347 4.64519V0.67901C5.85347 0.303881 5.54934 0 5.17425 0H3.93849C3.56336 0 3.25928 0.303881 3.25928 0.67901V4.64519C3.25928 5.02028 3.56336 5.32396 3.93849 5.32396ZM14.792 5.32396H16.0277C16.4026 5.32396 16.7067 5.02028 16.7067 4.64519V0.67901C16.7067 0.303881 16.4026 0 16.0277 0H14.792C14.4169 0 14.1128 0.303881 14.1128 0.67901V4.64519C14.1128 5.02028 14.4169 5.32396 14.792 5.32396Z" fill="#5E5E5E"/>
    </g>
    <defs>
        <clipPath id="clip0_457_1165">
            <rect width="20" height="20" fill="white"/>
        </clipPath>
    </defs>
</svg>
